# xmcd
#
# Track frame offsets:
#	150
#	10043
#	20243
#	35586
#	49575
#	68204
#	80888
#	94981
#	103667
#	119502
#	130251
#	138770
#	151582
#
# Disc length: 2142 seconds
#
# Revision: 0
# Processed by: cddbd v1.5.1PL2 Copyright (c) Steve Scherf et al.
# Submitted via: dBpowerAMP V4.0
#
DISCID=ab085c0d
DTITLE=Supersuckers - Must've Been High
DYEAR=1900
DGENRE=
TTITLE0=Must've been high
TTITLE1=Dead in the water
TTITLE2=Barricade
TTITLE3=Roamin' round
TTITLE4=Hungover together
TTITLE5=Non addictive marijuana
TTITLE6=The captain
TTITLE7=Blow you away
TTITLE8=Roadworm and weary
TTITLE9=Hangin'out with me
TTITLE10=Juicy pureballs
TTITLE11=One cigarette away
TTITLE12=Hangliders
EXTD=
EXTT0=
EXTT1=
EXTT2=
EXTT3=
EXTT4=
EXTT5=
EXTT6=
EXTT7=
EXTT8=
EXTT9=
EXTT10=
EXTT11=
EXTT12=
PLAYORDER=
